<?xml version="1.0" encoding="UTF-8" standalone="no"?>
<!-- Uploaded to: SVG Repo, www.svgrepo.com, Generator: SVG Repo Mixer Tools -->

<svg
   width="800px"
   height="800px"
   viewBox="-3 0 32 32"
   version="1.1"
   id="svg4"
   sodipodi:docname="smile-disopinionated-text-hair.svg"
   inkscape:version="1.4 (86a8ad7, 2024-10-11)"
   xmlns:inkscape="http://www.inkscape.org/namespaces/inkscape"
   xmlns:sodipodi="http://sodipodi.sourceforge.net/DTD/sodipodi-0.dtd"
   xmlns:xlink="http://www.w3.org/1999/xlink"
   xmlns="http://www.w3.org/2000/svg"
   xmlns:svg="http://www.w3.org/2000/svg">
  <defs
     id="defs4">
    <linearGradient
       id="swatch1"
       inkscape:swatch="solid">
      <stop
         style="stop-color:#000000;stop-opacity:0;"
         offset="0"
         id="stop1" />
    </linearGradient>
    <inkscape:path-effect
       effect="fill_between_many"
       method="bsplinespiro"
       autoreverse="false"
       close="false"
       join="false"
       linkedpaths="#path9,0,1"
       id="path-effect14" />
    <inkscape:path-effect
       effect="fill_between_many"
       method="bsplinespiro"
       autoreverse="false"
       close="false"
       join="false"
       linkedpaths="#path9,0,1"
       id="path-effect12" />
    <inkscape:path-effect
       effect="powerstroke"
       message=""
       id="path-effect9"
       is_visible="true"
       lpeversion="1.3"
       scale_width="1"
       interpolator_type="CubicBezierJohan"
       interpolator_beta="0.2"
       start_linecap_type="zerowidth"
       end_linecap_type="zerowidth"
       offset_points="0,18.867925"
       linejoin_type="extrp_arc"
       miter_limit="4"
       not_jump="false"
       sort_points="true" />
    <inkscape:path-effect
       effect="powerstroke"
       message=""
       id="path-effect6"
       is_visible="true"
       lpeversion="1.3"
       scale_width="1"
       interpolator_type="CubicBezierJohan"
       interpolator_beta="0.2"
       start_linecap_type="zerowidth"
       end_linecap_type="zerowidth"
       offset_points="0,18.867925"
       linejoin_type="extrp_arc"
       miter_limit="4"
       not_jump="false"
       sort_points="true" />
    <inkscape:path-effect
       effect="fill_between_many"
       method="bsplinespiro"
       autoreverse="false"
       close="false"
       join="false"
       linkedpaths="#path6,0,1"
       id="path-effect7" />
    <inkscape:path-effect
       effect="fill_between_many"
       method="bsplinespiro"
       autoreverse="false"
       close="false"
       join="false"
       linkedpaths="#path9,0,1"
       id="path-effect10" />
    <linearGradient
       inkscape:collect="always"
       xlink:href="#swatch1"
       id="linearGradient1"
       x1="-7.825369"
       y1="1.616402"
       x2="9.6220961"
       y2="1.616402"
       gradientUnits="userSpaceOnUse" />
  </defs>
  <sodipodi:namedview
     id="namedview4"
     pagecolor="#ffffff"
     bordercolor="#000000"
     borderopacity="0.25"
     inkscape:showpageshadow="2"
     inkscape:pageopacity="0.0"
     inkscape:pagecheckerboard="0"
     inkscape:deskcolor="#d1d1d1"
     inkscape:zoom="0.68324193"
     inkscape:cx="349.07108"
     inkscape:cy="432.49688"
     inkscape:window-width="1920"
     inkscape:window-height="991"
     inkscape:window-x="-9"
     inkscape:window-y="-9"
     inkscape:window-maximized="1"
     inkscape:current-layer="svg4" />
  <g
     id="icomoon-ignore" />
  <path
     d="m 13.092722,5.5417767 c -7.0929999,0 -12.79999992,5.7070003 -12.79999992,12.8000003 0,7.093 5.70700002,12.8 12.79999992,12.8 7.093,0 12.8,-5.707 12.8,-12.8 0,-7.093 -5.707,-12.8000003 -12.8,-12.8000003 z m 0,24.5330003 c -6.4529999,0 -11.7329999,-5.28 -11.7329999,-11.733 0,-6.453 5.28,-11.7330003 11.7329999,-11.7330003 6.453,0 11.733,5.2800003 11.733,11.7330003 0,6.453 -5.28,11.733 -11.733,11.733 z"
     fill="#000000"
     id="path1"
     sodipodi:nodetypes="ssssssssss" />
  <path
     d="m 19.467,15.52 c -0.267,-0.107 -0.587,-0.053 -0.693,0.213 -1.173,2.293 -3.467,3.68 -5.973,3.68 -2.56,0 -4.8,-1.387 -5.973,-3.68 C 6.721,15.466 6.401,15.36 6.135,15.52 c -0.267,0.107 -0.373,0.427 -0.267,0.693 1.333,2.613 3.947,4.267 6.933,4.267 2.933,0 5.6,-1.653 6.88,-4.267 0.16,-0.267 0.053,-0.587 -0.213,-0.693 z"
     fill="#000000"
     id="path2" />
  <path
     d="m 8.293,12.613 c 0,0.884 -0.716,1.6 -1.6,1.6 -0.884,0 -1.6,-0.716 -1.6,-1.6 0,-0.884 0.716,-1.6 1.6,-1.6 0.884,0 1.6,0.716 1.6,1.6 z"
     fill="#000000"
     id="path3"
     sodipodi:nodetypes="sssss" />
  <path
     d="m 20.987,12.693 c 0,0.884 -0.716,1.6 -1.6,1.6 -0.884,0 -1.6,-0.716 -1.6,-1.6 0,-0.884 0.716,-1.6 1.6,-1.6 0.884,0 1.6,0.716 1.6,1.6 z"
     fill="#000000"
     id="path4" />
  <path
     style="fill:#000000;stroke-width:0.984;stroke-dasharray:none"
     d="m 6.397154,14.98577 v 6.747736"
     id="path7" />
  <path
     style="fill:#00ff00;fill-opacity:0;fill-rule:nonzero;stroke:none;stroke-width:0.0755904;stroke-linecap:round"
     d="m 6.397154,14.98577 c 0,0 -18.867925,0 -18.867925,0 0,1.349547 18.867925,5.398189 18.867925,6.747736 0,-1.349547 18.867925,-5.398189 18.867925,-6.747736 0,0 -18.867925,0 -18.867925,0 z"
     id="path6"
     inkscape:path-effect="#path-effect6"
     inkscape:original-d="m 6.397154,14.98577 v 6.747736"
     inkscape:linked-fill="path7" />
  <path
     d="M 13.269082,2.897801 V 8.1138424"
     id="path10"
     style="fill:#000000;stroke:#000000;stroke-opacity:1;stroke-linecap:round"
     transform="translate(6.0025873,11.756792)" />
  <path
     style="fill:#00ff00;fill-opacity:0;fill-rule:nonzero;stroke:none;stroke-width:0.8;stroke-linecap:round;stroke-dasharray:none"
     d="m 0.39456664,2.690815 c 0,0 -18.86792464,0 -18.86792464,0 0,1.0432083 18.86792464,4.1728331 18.86792464,5.2160414 0,-1.0432083 18.86792536,-4.1728331 18.86792536,-5.2160414 0,0 -18.86792536,0 -18.86792536,0 z"
     id="path9"
     inkscape:path-effect="#path-effect9"
     inkscape:original-d="M 0.39456664,2.690815 V 7.9068564"
     inkscape:linked-fill="path10"
     transform="translate(18.877103,11.963778)" />
  <path
     d="m 6.3971546,14.447607 v 5.216041"
     id="path11"
     style="fill:#000000;stroke:#000000;stroke-linecap:round;stroke-opacity:1"
     transform="translate(12.874515,0.20698605)" />
  <path
     d="m 19.27167,15.934593 v 5.216041"
     id="path12"
     style="fill:#000000;stroke:#000000;stroke-linecap:round;stroke-opacity:1" />
  <path
     d="m 6.309338,15.934593 v 5.216041"
     id="use14"
     style="fill:#000000;stroke:#000000;stroke-linecap:round;stroke-opacity:1" />
  <path
     d="m 5.0024877,23.163751 v -0.07083 h 0.4150008 q 0.2850006,0 0.3975008,0.03583 0.1658336,0.0525 0.2691672,0.195834 0.1141669,0.158333 0.1141669,0.364167 0,0.14 -0.056667,0.260834 -0.055834,0.12 -0.1475003,0.193334 -0.075833,0.06167 -0.1825004,0.0875 -0.1066668,0.025 -0.2150004,0.025 H 5.0024877 v -0.07 h 0.048333 l 0.015833,8.33e-4 q 0.030833,0 0.05,-0.0125 0.02,-0.0125 0.028333,-0.03333 0.00583,-0.01583 0.00583,-0.07333 v -0.777501 q 0,-0.06583 -0.00833,-0.085 -0.011667,-0.02583 -0.0375,-0.03583 -0.015,-0.005 -0.1025002,-0.005 z m 0.3033339,1.001669 h 0.2516672 q 0.0375,0 0.1241669,-0.01333 0.0875,-0.01333 0.1250002,-0.0325 0.055,-0.02833 0.1066669,-0.09083 0.051667,-0.06333 0.079167,-0.150834 0.028333,-0.08833 0.028333,-0.201667 0,-0.1125 -0.028333,-0.195 -0.0275,-0.0825 -0.084167,-0.148334 -0.055833,-0.06583 -0.1250003,-0.1 -0.068333,-0.035 -0.1533336,-0.04417 -0.045833,-0.0042 -0.1533336,-0.0042 H 5.3058216 Z m 1.4883359,-1.110002 q 0.04,0 0.068333,0.02833 0.028333,0.0275 0.028333,0.0675 0,0.04 -0.028333,0.06833 -0.028333,0.02833 -0.068333,0.02833 -0.04,0 -0.068333,-0.02833 -0.028333,-0.02833 -0.028333,-0.06833 0,-0.04 0.028333,-0.0675 0.028333,-0.02833 0.068333,-0.02833 z M 6.581657,23.571252 v -0.06917 q 0.069167,-0.0083 0.1158336,-0.02333 0.0475,-0.015 0.1075002,-0.0475 h 0.060834 v 0.668334 q 0,0.035 0.01,0.0525 0.01,0.0175 0.0275,0.02583 0.018333,0.0075 0.065833,0.0075 h 0.039167 v 0.07 H 6.581657 v -0.07 h 0.034167 q 0.055833,0 0.075,-0.01 0.019167,-0.01 0.026667,-0.02833 0.00833,-0.01833 0.00833,-0.08583 v -0.490001 z m 1.3225021,-0.12 h 0.058333 l 0.075,0.255 -0.075,0.025 q -0.045,-0.1025 -0.1266669,-0.160833 -0.080833,-0.05917 -0.164167,-0.05917 -0.064167,0 -0.1041669,0.03167 -0.04,0.03083 -0.04,0.07167 0,0.03833 0.029167,0.06583 0.028333,0.02833 0.1275003,0.06417 l 0.1625003,0.0575 q 0.1375003,0.04917 0.1875004,0.105 0.049167,0.05667 0.049167,0.128334 0,0.06083 -0.036667,0.1175 -0.036667,0.05583 -0.1066669,0.08917 -0.069167,0.03333 -0.159167,0.03333 -0.1400002,0 -0.2400004,-0.08 l -0.0175,0.06 H 7.464158 l -0.1041669,-0.272501 0.075833,-0.03 q 0.075833,0.120001 0.1433336,0.170001 0.094167,0.07083 0.2033337,0.07083 0.0725,0 0.1191669,-0.03833 0.046667,-0.03917 0.046667,-0.08667 0,-0.03917 -0.029167,-0.07167 -0.03,-0.03167 -0.1150003,-0.06167 l -0.1925004,-0.07 q -0.1241669,-0.045 -0.1725003,-0.09833 -0.048333,-0.05333 -0.048333,-0.122501 0,-0.08417 0.078334,-0.148333 0.079167,-0.065 0.2008337,-0.065 0.063334,0 0.1133336,0.01667 0.05,0.01583 0.098333,0.05333 z m 1.2008352,-0.378334 q 0.159167,0 0.2875006,0.07667 0.1391669,0.0825 0.2133338,0.214168 0.075,0.131666 0.075,0.305 0,0.268334 -0.166667,0.437501 -0.166667,0.169167 -0.4250008,0.169167 -0.2883339,0 -0.4566676,-0.203334 -0.1375003,-0.165833 -0.1375003,-0.396667 0,-0.171667 0.0775,-0.307501 0.0775,-0.136667 0.2200004,-0.215834 0.1425003,-0.07917 0.3125009,-0.07917 z m 0,0.09 q -0.1300002,0 -0.2233337,0.06 -0.093334,0.05917 -0.1500003,0.175 -0.055834,0.115834 -0.055834,0.285834 0,0.162501 0.055,0.275834 0.055834,0.1125 0.149167,0.1725 0.093333,0.06 0.2100004,0.06 0.1158336,0 0.2050004,-0.05833 0.089167,-0.05917 0.1475003,-0.185 0.058333,-0.126667 0.058333,-0.280834 0,-0.156667 -0.058333,-0.286667 -0.05,-0.111667 -0.1325003,-0.165001 -0.0825,-0.05333 -0.2050004,-0.05333 z m 0.9591677,0.407501 v -0.06833 q 0.0625,0 0.110834,-0.01583 0.04833,-0.01583 0.105833,-0.055 h 0.06583 v 0.139167 q 0.104167,-0.0825 0.173334,-0.110834 0.06917,-0.02833 0.138333,-0.02833 0.1425,0 0.242501,0.111667 0.100833,0.111666 0.100833,0.290833 0,0.198334 -0.114167,0.325001 -0.104167,0.116667 -0.268334,0.116667 -0.08167,0 -0.153333,-0.03083 -0.05167,-0.02167 -0.119167,-0.0775 v 0.274168 q 0,0.06167 0.0033,0.0725 0.0042,0.01583 0.01667,0.02667 0.0125,0.01083 0.03167,0.01417 0.01417,0.0025 0.095,0.0025 v 0.07 h -0.429168 v -0.07 h 0.0375 q 0.0575,0 0.07417,-0.0092 0.0175,-0.0083 0.02583,-0.02667 0.005,-0.01417 0.005,-0.08667 V 23.5704 Z m 0.282501,0.08583 v 0.286667 q 0,0.05667 0.0067,0.08417 0.01,0.0425 0.03833,0.07667 0.02917,0.03417 0.07833,0.05833 0.05,0.02417 0.104167,0.02417 0.108334,0 0.187501,-0.08167 0.08,-0.08167 0.08,-0.2475 0,-0.155 -0.06583,-0.239167 -0.06583,-0.085 -0.155833,-0.085 -0.05833,0 -0.126667,0.03083 -0.06833,0.03083 -0.146667,0.0925 z m 1.230002,-0.600834 q 0.04,0 0.06833,0.02833 0.02833,0.0275 0.02833,0.0675 0,0.04 -0.02833,0.06833 -0.02833,0.02833 -0.06833,0.02833 -0.04,0 -0.06833,-0.02833 -0.02833,-0.02833 -0.02833,-0.06833 0,-0.04 0.02833,-0.0675 0.02833,-0.02833 0.06833,-0.02833 z m -0.2125,0.515834 v -0.06917 q 0.06917,-0.0083 0.115833,-0.02333 0.0475,-0.015 0.1075,-0.0475 h 0.06083 v 0.668334 q 0,0.035 0.01,0.0525 0.01,0.0175 0.0275,0.02583 0.01833,0.0075 0.06583,0.0075 h 0.03917 v 0.07 h -0.426667 v -0.07 h 0.03417 q 0.05583,0 0.075,-0.01 0.01917,-0.01 0.02667,-0.02833 0.0083,-0.01833 0.0083,-0.08583 v -0.490001 z m 0.759167,0 v -0.07 q 0.07417,-0.0083 0.110834,-0.02 0.03667,-0.01167 0.105833,-0.05 h 0.06 v 0.158333 q 0.110001,-0.0925 0.187501,-0.125 0.07833,-0.03333 0.158333,-0.03333 0.06833,0 0.120834,0.02333 0.0525,0.0225 0.085,0.06167 0.03333,0.03917 0.04417,0.08917 0.0067,0.03083 0.0067,0.09333 v 0.366668 q 0,0.06583 0.0092,0.085 0.01,0.01833 0.03083,0.02667 0.02083,0.0083 0.1025,0.0083 v 0.07 h -0.429168 v -0.07 h 0.02333 q 0.06,0 0.08167,-0.01083 0.02167,-0.01083 0.03083,-0.03167 0.01,-0.02083 0.01,-0.085 v -0.306668 q 0,-0.095 -0.01583,-0.131667 -0.015,-0.03667 -0.0525,-0.05917 -0.03667,-0.02333 -0.09333,-0.02333 -0.0675,0 -0.144167,0.035 -0.07667,0.03417 -0.148334,0.101667 v 0.384168 q 0,0.065 0.0092,0.08667 0.01,0.02167 0.03167,0.0325 0.015,0.0083 0.08,0.0083 h 0.02417 v 0.07 H 12.12344 v -0.07 h 0.02083 q 0.06167,0 0.08417,-0.01 0.0225,-0.01083 0.03167,-0.0375 0.005,-0.01333 0.005,-0.09167 v -0.475001 z m 1.57167,-0.515834 q 0.04,0 0.06833,0.02833 0.02833,0.0275 0.02833,0.0675 0,0.04 -0.02833,0.06833 -0.02833,0.02833 -0.06833,0.02833 -0.04,0 -0.06833,-0.02833 -0.02833,-0.02833 -0.02833,-0.06833 0,-0.04 0.02833,-0.0675 0.02833,-0.02833 0.06833,-0.02833 z m -0.212501,0.515834 v -0.06917 q 0.06917,-0.0083 0.115834,-0.02333 0.0475,-0.015 0.1075,-0.0475 h 0.06083 v 0.668334 q 0,0.035 0.01,0.0525 0.01,0.0175 0.0275,0.02583 0.01833,0.0075 0.06583,0.0075 h 0.03917 v 0.07 h -0.426668 v -0.07 h 0.03417 q 0.05583,0 0.075,-0.01 0.01917,-0.01 0.02667,-0.02833 0.0083,-0.01833 0.0083,-0.08583 v -0.490001 z m 1.179169,-0.14 q 0.1225,0 0.211667,0.05083 0.09,0.05083 0.141667,0.148334 0.05167,0.0975 0.05167,0.2225 0,0.125 -0.05333,0.222501 -0.0525,0.0975 -0.144167,0.149167 -0.09083,0.05083 -0.2175,0.05083 -0.201667,0 -0.303334,-0.125834 -0.100833,-0.125833 -0.100833,-0.295833 0,-0.124167 0.0525,-0.220001 0.0525,-0.09667 0.146667,-0.149167 0.095,-0.05333 0.215,-0.05333 z m -0.0067,0.08083 q -0.095,0 -0.160833,0.075 -0.08333,0.09333 -0.08333,0.271668 0,0.171667 0.07083,0.261667 0.06417,0.08 0.174167,0.08 0.07083,0 0.125833,-0.0375 0.05583,-0.0375 0.09,-0.119167 0.03417,-0.0825 0.03417,-0.193334 0,-0.108333 -0.03667,-0.194167 -0.02833,-0.06833 -0.08583,-0.105833 -0.05667,-0.03833 -0.128334,-0.03833 z m 0.782501,0.05917 v -0.07 q 0.07417,-0.0083 0.110834,-0.02 0.03667,-0.01167 0.105833,-0.05 h 0.06 v 0.158333 q 0.11,-0.0925 0.1875,-0.125 0.07833,-0.03333 0.158334,-0.03333 0.06833,0 0.120833,0.02333 0.0525,0.0225 0.085,0.06167 0.03333,0.03917 0.04417,0.08917 0.0067,0.03083 0.0067,0.09333 v 0.366668 q 0,0.06583 0.0092,0.085 0.01,0.01833 0.03083,0.02667 0.02083,0.0083 0.1025,0.0083 v 0.07 h -0.429167 v -0.07 h 0.02333 q 0.06,0 0.08167,-0.01083 0.02167,-0.01083 0.03083,-0.03167 0.01,-0.02083 0.01,-0.085 v -0.306668 q 0,-0.095 -0.01583,-0.131667 -0.015,-0.03667 -0.0525,-0.05917 -0.03667,-0.02333 -0.09333,-0.02333 -0.0675,0 -0.144167,0.035 -0.07667,0.03417 -0.148333,0.101667 v 0.384168 q 0,0.065 0.0092,0.08667 0.01,0.02167 0.03167,0.0325 0.015,0.0083 0.08,0.0083 h 0.02417 v 0.07 H 15.43758 v -0.07 h 0.02083 q 0.06167,0 0.08417,-0.01 0.0225,-0.01083 0.03167,-0.0375 0.005,-0.01333 0.005,-0.09167 v -0.475001 z m 1.965004,0.201667 v -0.09083 q 0,-0.0925 -0.05167,-0.131667 -0.05167,-0.04 -0.145834,-0.04 -0.04667,0 -0.08167,0.01167 -0.035,0.01083 -0.05667,0.03083 -0.02083,0.01917 -0.03083,0.04417 -0.0042,0.0092 -0.02,0.07083 -0.01917,0.075 -0.0775,0.075 -0.03333,0 -0.05417,-0.02167 -0.02,-0.0225 -0.02,-0.06 0,-0.055 0.04083,-0.1075 0.04083,-0.05333 0.124167,-0.0875 0.08417,-0.035 0.198333,-0.035 0.106667,0 0.182501,0.03333 0.07583,0.0325 0.111666,0.09417 0.025,0.0425 0.025,0.155 v 0.320834 q 0,0.06833 0.0042,0.08917 0.0092,0.03583 0.03167,0.05417 0.02333,0.0175 0.06,0.0175 0.03833,0 0.09167,-0.01833 v 0.0725 q -0.06917,0.02 -0.124167,0.02 -0.05917,0 -0.1,-0.01667 -0.04,-0.01667 -0.06583,-0.04833 -0.02583,-0.0325 -0.03333,-0.07667 -0.1,0.07833 -0.180834,0.11 -0.08083,0.03167 -0.163333,0.03167 -0.115001,0 -0.186667,-0.0625 -0.07167,-0.0625 -0.07167,-0.146667 0,-0.05083 0.02583,-0.09667 0.02667,-0.04583 0.08,-0.08083 0.05417,-0.035 0.169167,-0.06167 0.115001,-0.02667 0.319168,-0.04833 z m 0,0.0725 q -0.193334,0.02833 -0.239168,0.03917 -0.09083,0.02083 -0.13,0.04583 -0.03917,0.025 -0.05583,0.05417 -0.01667,0.02833 -0.01667,0.06083 0,0.0325 0.01833,0.06333 0.01917,0.03 0.05333,0.0475 0.03417,0.0175 0.0725,0.0175 0.05417,0 0.1225,-0.02583 0.06833,-0.02583 0.175001,-0.100834 z m 0.850001,-0.677501 h 0.05917 v 0.283334 h 0.247501 v 0.08333 h -0.247501 v 0.502501 q 0,0.06417 0.01083,0.09167 0.01167,0.0275 0.03833,0.045 0.0275,0.0175 0.06083,0.0175 0.07917,0 0.175001,-0.07083 v 0.08083 q -0.109167,0.07417 -0.220834,0.07417 -0.06333,0 -0.115,-0.02833 -0.05083,-0.02833 -0.07,-0.06667 -0.01833,-0.03833 -0.01833,-0.133334 v -0.512501 h -0.145834 v -0.07 q 0.07,-0.01583 0.112501,-0.04917 0.04333,-0.03333 0.07,-0.08667 0.02667,-0.05333 0.04333,-0.160833 z m 1.382502,0.872502 0.05333,0.04333 q -0.06083,0.0725 -0.118334,0.115 -0.05667,0.0425 -0.1075,0.05917 -0.05083,0.0175 -0.119167,0.0175 -0.1225,0 -0.208334,-0.05 -0.09833,-0.0575 -0.150833,-0.15 -0.0525,-0.0925 -0.0525,-0.218334 0,-0.131667 0.05083,-0.225001 0.05083,-0.09333 0.141667,-0.146667 0.09167,-0.05417 0.211667,-0.05417 0.08917,0 0.155,0.02833 0.06583,0.0275 0.111667,0.08417 0.04583,0.05583 0.06667,0.128334 0.01167,0.0425 0.01333,0.11 h -0.589168 q -0.0025,0.04083 -0.0025,0.06083 0,0.105 0.03667,0.187501 0.03667,0.08167 0.09667,0.120833 0.06083,0.03833 0.1375,0.03833 0.065,0 0.125834,-0.03 0.06083,-0.03083 0.1475,-0.119166 z m -0.106667,-0.336668 q -0.0125,-0.07667 -0.03583,-0.113333 -0.0225,-0.03667 -0.065,-0.05833 -0.04167,-0.02167 -0.09417,-0.02167 -0.0525,0 -0.09833,0.02167 -0.04583,0.02167 -0.07667,0.06 -0.03,0.03833 -0.0525,0.111667 z m 1.040002,-0.530001 v -0.07083 q 0.05667,-0.005 0.103333,-0.01917 0.0475,-0.015 0.118334,-0.05083 h 0.0625 v 1.010835 q 0,0.07 0.0033,0.085 0.0083,0.03167 0.02833,0.04417 0.02,0.0125 0.0775,0.0125 h 0.03583 v 0.07 l -0.289167,0.01333 v -0.1325 q -0.08333,0.07583 -0.156667,0.1075 -0.0725,0.03167 -0.145834,0.03167 -0.150833,0 -0.250834,-0.120834 -0.09917,-0.121666 -0.09917,-0.2925 0,-0.121667 0.0525,-0.222501 0.05333,-0.101666 0.14,-0.155 0.08667,-0.05333 0.19,-0.05333 0.07917,0 0.146667,0.0275 0.0675,0.0275 0.123334,0.0825 v -0.367501 z m 0.14,0.880002 v -0.315001 q 0,-0.0675 -0.02583,-0.11 -0.025,-0.04333 -0.08333,-0.075 -0.0575,-0.03167 -0.118334,-0.03167 -0.0725,0 -0.134167,0.04 -0.06083,0.03917 -0.09583,0.114167 -0.03417,0.07417 -0.03417,0.180001 0,0.1 0.03167,0.173333 0.0325,0.0725 0.08667,0.110834 0.05417,0.0375 0.110833,0.0375 0.05583,0 0.126667,-0.03167 0.07083,-0.0325 0.135834,-0.0925 z"
     id="text2"
     style="font-weight:300;font-size:1.70667px;line-height:0;font-family:'Bookman Old Style';-inkscape-font-specification:'Bookman Old Style Light';text-align:center;letter-spacing:0.24px;text-anchor:middle;fill-opacity:0.991952;stroke:#000700;stroke-width:0.08;stroke-linecap:round"
     aria-label="DisOpinionated" />
  <path
     id="path43"
     style="opacity:1;fill:none;fill-opacity:0.0242792;stroke:#000700;stroke-width:0.8;stroke-linecap:round;stroke-opacity:0.983903"
     d="M 2.259985,12.796527 C 1.7714795,9.8507134 2.5108278,6.9279585 4.310052,4.6923037 6.1092806,2.4566441 8.2301751,0.80519339 11.228749,0.63209613"
     sodipodi:nodetypes="csc" />
  <path
     id="use43"
     style="opacity:0.99999999;fill:none;fill-opacity:0.0242792;stroke:#000700;stroke-width:0.611879;stroke-linecap:round;stroke-opacity:0.983903"
     d="M 5.8475437,8.6606242 C 6.1940293,6.4145154 7.4365192,4.4478558 9.292723,3.2074648 11.148931,1.9670712 13.101469,1.2202128 15.34454,1.7358831"
     sodipodi:nodetypes="csc" />
  <path
     id="use44"
     style="opacity:0.98422091;fill:#000000;fill-opacity:0.0242792;stroke:#000700;stroke-width:0.606971;stroke-linecap:round;stroke-opacity:0.983903"
     d="M 12.468386,6.3361733 C 12.888458,4.5131312 14.394828,2.9169027 16.645253,1.910146 18.895684,0.9033873 21.262903,0.2972037 23.982358,0.71574468"
     sodipodi:nodetypes="csc" />
</svg>
