<?xml version="1.0" encoding="UTF-8" standalone="no"?>
<!-- Uploaded to: SVG Repo, www.svgrepo.com, Generator: SVG Repo Mixer Tools -->

<svg
   width="800px"
   height="800px"
   viewBox="-3 0 32 32"
   version="1.1"
   id="svg4"
   sodipodi:docname="dis.svg"
   inkscape:version="1.4 (86a8ad7, 2024-10-11)"
   xmlns:inkscape="http://www.inkscape.org/namespaces/inkscape"
   xmlns:sodipodi="http://sodipodi.sourceforge.net/DTD/sodipodi-0.dtd"
   xmlns:xlink="http://www.w3.org/1999/xlink"
   xmlns="http://www.w3.org/2000/svg"
   xmlns:svg="http://www.w3.org/2000/svg">
  <defs
     id="defs4">
    <linearGradient
       id="swatch1"
       inkscape:swatch="solid">
      <stop
         style="stop-color:#000000;stop-opacity:0;"
         offset="0"
         id="stop1" />
    </linearGradient>
    <inkscape:path-effect
       effect="fill_between_many"
       method="bsplinespiro"
       autoreverse="false"
       close="false"
       join="false"
       linkedpaths="#path9,0,1"
       id="path-effect14" />
    <inkscape:path-effect
       effect="fill_between_many"
       method="bsplinespiro"
       autoreverse="false"
       close="false"
       join="false"
       linkedpaths="#path9,0,1"
       id="path-effect12" />
    <inkscape:path-effect
       effect="powerstroke"
       message=""
       id="path-effect9"
       is_visible="true"
       lpeversion="1.3"
       scale_width="1"
       interpolator_type="CubicBezierJohan"
       interpolator_beta="0.2"
       start_linecap_type="zerowidth"
       end_linecap_type="zerowidth"
       offset_points="0,18.867925"
       linejoin_type="extrp_arc"
       miter_limit="4"
       not_jump="false"
       sort_points="true" />
    <inkscape:path-effect
       effect="powerstroke"
       message=""
       id="path-effect6"
       is_visible="true"
       lpeversion="1.3"
       scale_width="1"
       interpolator_type="CubicBezierJohan"
       interpolator_beta="0.2"
       start_linecap_type="zerowidth"
       end_linecap_type="zerowidth"
       offset_points="0,18.867925"
       linejoin_type="extrp_arc"
       miter_limit="4"
       not_jump="false"
       sort_points="true" />
    <inkscape:path-effect
       effect="fill_between_many"
       method="bsplinespiro"
       autoreverse="false"
       close="false"
       join="false"
       linkedpaths="#path6,0,1"
       id="path-effect7" />
    <inkscape:path-effect
       effect="fill_between_many"
       method="bsplinespiro"
       autoreverse="false"
       close="false"
       join="false"
       linkedpaths="#path9,0,1"
       id="path-effect10" />
    <linearGradient
       inkscape:collect="always"
       xlink:href="#swatch1"
       id="linearGradient1"
       x1="-7.825369"
       y1="1.616402"
       x2="9.6220961"
       y2="1.616402"
       gradientUnits="userSpaceOnUse" />
  </defs>
  <sodipodi:namedview
     id="namedview4"
     pagecolor="#ffffff"
     bordercolor="#000000"
     borderopacity="0.25"
     inkscape:showpageshadow="2"
     inkscape:pageopacity="0.0"
     inkscape:pagecheckerboard="0"
     inkscape:deskcolor="#d1d1d1"
     inkscape:zoom="0.68324193"
     inkscape:cx="349.07108"
     inkscape:cy="432.49688"
     inkscape:window-width="1920"
     inkscape:window-height="991"
     inkscape:window-x="-9"
     inkscape:window-y="-9"
     inkscape:window-maximized="1"
     inkscape:current-layer="svg4" />
  <g
     id="icomoon-ignore" />
  <path
     d="m 13.092722,5.5417767 c -7.0929999,0 -12.79999992,5.7070003 -12.79999992,12.8000003 0,7.093 5.70700002,12.8 12.79999992,12.8 7.093,0 12.8,-5.707 12.8,-12.8 0,-7.093 -5.707,-12.8000003 -12.8,-12.8000003 z m 0,24.5330003 c -6.4529999,0 -11.7329999,-5.28 -11.7329999,-11.733 0,-6.453 5.28,-11.7330003 11.7329999,-11.7330003 6.453,0 11.733,5.2800003 11.733,11.7330003 0,6.453 -5.28,11.733 -11.733,11.733 z"
     fill="#000000"
     id="path1"
     sodipodi:nodetypes="ssssssssss" />
  <path
     d="m 19.467,15.52 c -0.267,-0.107 -0.587,-0.053 -0.693,0.213 -1.173,2.293 -3.467,3.68 -5.973,3.68 -2.56,0 -4.8,-1.387 -5.973,-3.68 C 6.721,15.466 6.401,15.36 6.135,15.52 c -0.267,0.107 -0.373,0.427 -0.267,0.693 1.333,2.613 3.947,4.267 6.933,4.267 2.933,0 5.6,-1.653 6.88,-4.267 0.16,-0.267 0.053,-0.587 -0.213,-0.693 z"
     fill="#000000"
     id="path2" />
  <path
     d="m 8.293,12.96 c 0,0.884 -0.716,1.6 -1.6,1.6 -0.884,0 -1.6,-0.716 -1.6,-1.6 0,-0.884 0.716,-1.6 1.6,-1.6 0.884,0 1.6,0.716 1.6,1.6 z"
     fill="#000000"
     id="path3"
     sodipodi:nodetypes="sssss" />
  <path
     d="m 20.987,12.96 c 0,0.884 -0.716,1.6 -1.6,1.6 -0.884,0 -1.6,-0.716 -1.6,-1.6 0,-0.884 0.716,-1.6 1.6,-1.6 0.884,0 1.6,0.716 1.6,1.6 z"
     fill="#000000"
     id="path4" />
  <path
     style="fill:#000000;stroke-width:0.984;stroke-dasharray:none"
     d="m 6.397154,14.98577 v 6.747736"
     id="path7" />
  <path
     style="fill:#00ff00;fill-opacity:0;fill-rule:nonzero;stroke:none;stroke-width:0.0755904;stroke-linecap:round"
     d="m 6.397154,14.98577 c 0,0 -18.867925,0 -18.867925,0 0,1.349547 18.867925,5.398189 18.867925,6.747736 0,-1.349547 18.867925,-5.398189 18.867925,-6.747736 0,0 -18.867925,0 -18.867925,0 z"
     id="path6"
     inkscape:path-effect="#path-effect6"
     inkscape:original-d="m 6.397154,14.98577 v 6.747736"
     inkscape:linked-fill="path7" />
  <path
     d="m 19.271669,15.94257 v 5.216042"
     id="path10"
     style="fill:#000000;stroke:#000000;stroke-linecap:round;stroke-opacity:1" />
  <path
     style="fill:#00ff00;fill-opacity:0;fill-rule:nonzero;stroke:none;stroke-width:0.8;stroke-linecap:round;stroke-dasharray:none"
     d="m 0.39456664,2.690815 c 0,0 -18.86792464,0 -18.86792464,0 0,1.0432083 18.86792464,4.1728331 18.86792464,5.2160414 0,-1.0432083 18.86792536,-4.1728331 18.86792536,-5.2160414 0,0 -18.86792536,0 -18.86792536,0 z"
     id="path9"
     inkscape:path-effect="#path-effect9"
     inkscape:original-d="M 0.39456664,2.690815 V 7.9068564"
     inkscape:linked-fill="path10"
     transform="translate(18.877103,11.963778)" />
  <path
     d="m 6.309338,15.934593 v 5.216041"
     id="use14"
     style="fill:#000000;stroke:#000000;stroke-linecap:round;stroke-opacity:1" />
  <path
     d="m 4.1244512,23.163751 v -0.07083 h 0.4605635 q 0.3162907,0 0.4411422,0.03583 0.1840404,0.0525 0.2987189,0.195834 0.1267012,0.158333 0.1267012,0.364167 0,0.14 -0.062888,0.260834 -0.061964,0.12 -0.1636943,0.193334 -0.084159,0.06167 -0.202537,0.0875 -0.1183777,0.025 -0.2386052,0.025 H 4.1244512 v -0.07 h 0.05364 l 0.017571,8.33e-4 q 0.034218,0 0.055489,-0.0125 0.022196,-0.0125 0.031444,-0.03333 0.00647,-0.01583 0.00647,-0.07333 v -0.777501 q 0,-0.06583 -0.00924,-0.085 -0.012948,-0.02583 -0.041617,-0.03583 -0.016647,-0.005 -0.1137536,-0.005 z M 4.461088,24.16542 h 0.2792976 q 0.041617,0 0.1377991,-0.01333 0.097107,-0.01333 0.1387239,-0.0325 0.061038,-0.02833 0.1183778,-0.09083 0.057339,-0.06333 0.087859,-0.150834 0.031444,-0.08833 0.031444,-0.201667 0,-0.1125 -0.031444,-0.195 -0.030519,-0.0825 -0.093408,-0.148334 -0.061963,-0.06583 -0.138724,-0.1 -0.075835,-0.035 -0.170168,-0.04417 -0.050865,-0.0042 -0.170168,-0.0042 H 4.461088 Z m 1.6517394,-1.110002 q 0.044392,0 0.075835,0.02833 0.031444,0.0275 0.031444,0.0675 0,0.04 -0.031444,0.06833 -0.031444,0.02833 -0.075835,0.02833 -0.044392,0 -0.075835,-0.02833 -0.031444,-0.02833 -0.031444,-0.06833 0,-0.04 0.031444,-0.0675 0.031444,-0.02833 0.075835,-0.02833 z m -0.2358308,0.515834 v -0.06917 q 0.076761,-0.0083 0.1285509,-0.02333 0.052715,-0.015 0.1193026,-0.0475 h 0.067513 v 0.668334 q 0,0.035 0.011098,0.0525 0.011098,0.0175 0.030519,0.02583 0.020346,0.0075 0.073061,0.0075 h 0.043467 v 0.07 H 5.8769966 v -0.07 h 0.037918 q 0.061963,0 0.083234,-0.01 0.021271,-0.01 0.029595,-0.02833 0.00924,-0.01833 0.00924,-0.08583 v -0.490001 z m 1.4676988,-0.12 h 0.064737 l 0.083234,0.255 -0.083234,0.025 q -0.04994,-0.1025 -0.1405735,-0.160833 -0.089708,-0.05917 -0.1821908,-0.05917 -0.071212,0 -0.1156034,0.03167 -0.044391,0.03083 -0.044391,0.07167 0,0.03833 0.032369,0.06583 0.031444,0.02833 0.1414985,0.06417 l 0.1803411,0.0575 q 0.1525964,0.04917 0.2080859,0.105 0.054565,0.05667 0.054565,0.128334 0,0.06083 -0.040693,0.1175 -0.040693,0.05583 -0.1183778,0.08917 -0.076761,0.03333 -0.1766418,0.03333 -0.1553708,0 -0.2663499,-0.08 l -0.019421,0.06 h -0.065663 l -0.1156033,-0.272501 0.084159,-0.03 q 0.084159,0.120001 0.1590701,0.170001 0.1045055,0.07083 0.2256576,0.07083 0.08046,0 0.1322501,-0.03833 0.051791,-0.03917 0.051791,-0.08667 0,-0.03917 -0.032369,-0.07167 -0.033294,-0.03167 -0.1276261,-0.06167 l -0.2136349,-0.07 q -0.1377991,-0.045 -0.191439,-0.09833 -0.053639,-0.05333 -0.053639,-0.122501 0,-0.08417 0.086934,-0.148333 0.087859,-0.065 0.2228831,-0.065 0.070287,0 0.1257765,0.01667 0.055489,0.01583 0.1091289,0.05333 z m 1.3326742,-0.378334 q 0.1766418,0 0.3190651,0.07667 0.1544461,0.0825 0.2367551,0.214168 0.08324,0.131666 0.08324,0.305 0,0.268334 -0.184966,0.437501 -0.1849649,0.169167 -0.471661,0.169167 -0.3199899,0 -0.5068048,-0.203334 -0.1525964,-0.165833 -0.1525964,-0.396667 0,-0.171667 0.086009,-0.307501 0.086009,-0.136667 0.2441541,-0.215834 0.1581453,-0.07917 0.3468102,-0.07917 z m 0,0.09 q -0.1442729,0 -0.2478534,0.06 -0.1035811,0.05917 -0.1664687,0.175 -0.061964,0.115834 -0.061964,0.285834 0,0.162501 0.061038,0.275834 0.061964,0.1125 0.1655439,0.1725 0.10358,0.06 0.2330563,0.06 0.1285509,0 0.2275072,-0.05833 0.098957,-0.05917 0.1636943,-0.185 0.064737,-0.126667 0.064737,-0.280834 0,-0.156667 -0.064737,-0.286667 -0.05549,-0.111667 -0.1470474,-0.165001 -0.091558,-0.05333 -0.2275073,-0.05333 z m 1.0644742,0.407501 v -0.06833 q 0.06936,0 0.123002,-0.01583 0.05364,-0.01583 0.117453,-0.055 h 0.07306 v 0.139167 q 0.115604,-0.0825 0.192364,-0.110834 0.07676,-0.02833 0.153521,-0.02833 0.158145,0 0.269125,0.111667 0.111903,0.111666 0.111903,0.290833 0,0.198334 -0.126701,0.325001 -0.115603,0.116667 -0.297794,0.116667 -0.09064,0 -0.170168,-0.03083 -0.05734,-0.02167 -0.13225,-0.0775 v 0.274168 q 0,0.06167 0.0037,0.0725 0.0047,0.01583 0.0185,0.02667 0.01387,0.01083 0.03515,0.01417 0.01572,0.0025 0.10543,0.0025 v 0.07 H 9.7418528 v -0.07 h 0.04162 q 0.06381,0 0.08231,-0.0092 0.01942,-0.0083 0.02867,-0.02667 0.0055,-0.01417 0.0055,-0.08667 V 23.5704 Z m 0.3135172,0.08583 v 0.286667 q 0,0.05667 0.0074,0.08417 0.0111,0.0425 0.04254,0.07667 0.03237,0.03417 0.08693,0.05833 0.05549,0.02417 0.115604,0.02417 0.120228,0 0.208086,-0.08167 0.08878,-0.08167 0.08878,-0.2475 0,-0.155 -0.07306,-0.239167 -0.07306,-0.085 -0.172942,-0.085 -0.06473,0 -0.140574,0.03083 -0.07583,0.03083 -0.162769,0.0925 z m 1.365043,-0.600834 q 0.04439,0 0.07583,0.02833 0.03144,0.0275 0.03144,0.0675 0,0.04 -0.03144,0.06833 -0.03144,0.02833 -0.07583,0.02833 -0.04439,0 -0.07583,-0.02833 -0.03144,-0.02833 -0.03144,-0.06833 0,-0.04 0.03144,-0.0675 0.03144,-0.02833 0.07583,-0.02833 z m -0.235831,0.515834 v -0.06917 q 0.07676,-0.0083 0.128551,-0.02333 0.05271,-0.015 0.119302,-0.0475 h 0.06751 v 0.668334 q 0,0.035 0.0111,0.0525 0.0111,0.0175 0.03052,0.02583 0.02034,0.0075 0.07306,0.0075 h 0.04347 v 0.07 h -0.473511 v -0.07 h 0.03792 q 0.06196,0 0.08323,-0.01 0.02127,-0.01 0.0296,-0.02833 0.0092,-0.01833 0.0092,-0.08583 v -0.490001 z m 0.842516,0 v -0.07 q 0.08231,-0.0083 0.123002,-0.02 0.0407,-0.01167 0.117453,-0.05 h 0.06659 v 0.158333 q 0.122078,-0.0925 0.208087,-0.125 0.08693,-0.03333 0.175716,-0.03333 0.07583,0 0.1341,0.02333 0.05826,0.0225 0.09433,0.06167 0.03699,0.03917 0.04902,0.08917 0.0074,0.03083 0.0074,0.09333 v 0.366668 q 0,0.06583 0.01021,0.085 0.0111,0.01833 0.03421,0.02667 0.02312,0.0083 0.113754,0.0083 v 0.07 h -0.476286 v -0.07 h 0.02589 q 0.06659,0 0.09064,-0.01083 0.02405,-0.01083 0.03421,-0.03167 0.0111,-0.02083 0.0111,-0.085 v -0.306668 q 0,-0.095 -0.01757,-0.131667 -0.01665,-0.03667 -0.05826,-0.05917 -0.0407,-0.02333 -0.103576,-0.02333 -0.07491,0 -0.159995,0.035 -0.08509,0.03417 -0.16462,0.101667 v 0.384168 q 0,0.065 0.01021,0.08667 0.0111,0.02167 0.03515,0.0325 0.01665,0.0083 0.08878,0.0083 h 0.02682 v 0.07 h -0.476286 v -0.07 h 0.02312 q 0.06844,0 0.09341,-0.01 0.02497,-0.01083 0.03515,-0.0375 0.0055,-0.01333 0.0055,-0.09167 v -0.475001 z m 1.744223,-0.515834 q 0.04439,0 0.07583,0.02833 0.03144,0.0275 0.03144,0.0675 0,0.04 -0.03144,0.06833 -0.03144,0.02833 -0.07583,0.02833 -0.04439,0 -0.07583,-0.02833 -0.03144,-0.02833 -0.03144,-0.06833 0,-0.04 0.03144,-0.0675 0.03144,-0.02833 0.07583,-0.02833 z m -0.235832,0.515834 v -0.06917 q 0.07676,-0.0083 0.128552,-0.02333 0.05272,-0.015 0.119302,-0.0475 h 0.06751 v 0.668334 q 0,0.035 0.0111,0.0525 0.0111,0.0175 0.03052,0.02583 0.02034,0.0075 0.07306,0.0075 h 0.04347 v 0.07 h -0.473511 v -0.07 h 0.03792 q 0.06196,0 0.08324,-0.01 0.02127,-0.01 0.0296,-0.02833 0.0092,-0.01833 0.0092,-0.08583 v -0.490001 z m 1.30863,-0.14 q 0.135949,0 0.234905,0.05083 0.09988,0.05083 0.157221,0.148334 0.05734,0.0975 0.05734,0.2225 0,0.125 -0.05918,0.222501 -0.05826,0.0975 -0.159995,0.149167 -0.100803,0.05083 -0.24138,0.05083 -0.223807,0 -0.336636,-0.125834 -0.111904,-0.125833 -0.111904,-0.295833 0,-0.124167 0.05826,-0.220001 0.05826,-0.09667 0.16277,-0.149167 0.10543,-0.05333 0.238604,-0.05333 z m -0.0074,0.08083 q -0.10543,0 -0.178491,0.075 -0.09248,0.09333 -0.09248,0.271668 0,0.171667 0.07861,0.261667 0.07121,0.08 0.193289,0.08 0.07861,0 0.139648,-0.0375 0.06196,-0.0375 0.09988,-0.119167 0.03792,-0.0825 0.03792,-0.193334 0,-0.108333 -0.0407,-0.194167 -0.03144,-0.06833 -0.09525,-0.105833 -0.06289,-0.03833 -0.142424,-0.03833 z m 0.868411,0.05917 v -0.07 q 0.08231,-0.0083 0.123003,-0.02 0.0407,-0.01167 0.117452,-0.05 h 0.06659 v 0.158333 q 0.122077,-0.0925 0.208086,-0.125 0.08693,-0.03333 0.175717,-0.03333 0.07583,0 0.134099,0.02333 0.05826,0.0225 0.09433,0.06167 0.03699,0.03917 0.04902,0.08917 0.0074,0.03083 0.0074,0.09333 v 0.366668 q 0,0.06583 0.01021,0.085 0.0111,0.01833 0.03421,0.02667 0.02312,0.0083 0.113754,0.0083 v 0.07 h -0.476285 v -0.07 h 0.02589 q 0.06659,0 0.09064,-0.01083 0.02405,-0.01083 0.03421,-0.03167 0.0111,-0.02083 0.0111,-0.085 v -0.306668 q 0,-0.095 -0.01757,-0.131667 -0.01665,-0.03667 -0.05826,-0.05917 -0.0407,-0.02333 -0.103577,-0.02333 -0.07491,0 -0.159995,0.035 -0.08509,0.03417 -0.164619,0.101667 v 0.384168 q 0,0.065 0.01021,0.08667 0.0111,0.02167 0.03515,0.0325 0.01665,0.0083 0.08878,0.0083 h 0.02682 v 0.07 H 15.7052 v -0.07 h 0.02312 q 0.06844,0 0.09341,-0.01 0.02497,-0.01083 0.03515,-0.0375 0.0055,-0.01333 0.0055,-0.09167 v -0.475001 z m 2.180741,0.201667 v -0.09083 q 0,-0.0925 -0.05734,-0.131667 -0.05734,-0.04 -0.161845,-0.04 -0.05179,0 -0.09064,0.01167 -0.03884,0.01083 -0.06289,0.03083 -0.02312,0.01917 -0.03421,0.04417 -0.0047,0.0092 -0.0222,0.07083 -0.02127,0.075 -0.08601,0.075 -0.03699,0 -0.06012,-0.02167 -0.0222,-0.0225 -0.0222,-0.06 0,-0.055 0.04531,-0.1075 0.04531,-0.05333 0.137799,-0.0875 0.09341,-0.035 0.220108,-0.035 0.118378,0 0.202538,0.03333 0.08415,0.0325 0.123926,0.09417 0.02774,0.0425 0.02774,0.155 v 0.320834 q 0,0.06833 0.0047,0.08917 0.01021,0.03583 0.03515,0.05417 0.02589,0.0175 0.06659,0.0175 0.04254,0 0.101734,-0.01833 v 0.0725 q -0.07676,0.02 -0.137799,0.02 -0.06567,0 -0.110979,-0.01667 -0.04439,-0.01667 -0.07306,-0.04833 -0.02867,-0.0325 -0.03699,-0.07667 -0.110979,0.07833 -0.200687,0.11 -0.0897,0.03167 -0.181265,0.03167 -0.127627,0 -0.207162,-0.0625 -0.07954,-0.0625 -0.07954,-0.146667 0,-0.05083 0.02867,-0.09667 0.0296,-0.04583 0.08878,-0.08083 0.06012,-0.035 0.18774,-0.06167 0.127626,-0.02667 0.354209,-0.04833 z m 0,0.0725 q -0.21456,0.02833 -0.265426,0.03917 -0.100802,0.02083 -0.144273,0.04583 -0.04347,0.025 -0.06196,0.05417 -0.0185,0.02833 -0.0185,0.06083 0,0.0325 0.02034,0.06333 0.02128,0.03 0.05918,0.0475 0.03792,0.0175 0.08046,0.0175 0.06012,0 0.135949,-0.02583 0.07583,-0.02583 0.194214,-0.100834 z m 0.943322,-0.677501 h 0.06567 v 0.283334 h 0.274674 v 0.08333 h -0.274674 v 0.502501 q 0,0.06417 0.01202,0.09167 0.01295,0.0275 0.04254,0.045 0.03052,0.0175 0.06751,0.0175 0.08786,0 0.194214,-0.07083 v 0.08083 q -0.121152,0.07417 -0.245079,0.07417 -0.07028,0 -0.127626,-0.02833 -0.05641,-0.02833 -0.07768,-0.06667 -0.02034,-0.03833 -0.02034,-0.133334 v -0.512501 h -0.161846 v -0.07 q 0.07769,-0.01583 0.124853,-0.04917 0.04809,-0.03333 0.07768,-0.08667 0.0296,-0.05333 0.04809,-0.160833 z m 1.534286,0.872502 0.05918,0.04333 q -0.06751,0.0725 -0.131326,0.115 -0.06289,0.0425 -0.119302,0.05917 -0.05641,0.0175 -0.13225,0.0175 -0.13595,0 -0.231207,-0.05 -0.109126,-0.0575 -0.167393,-0.15 -0.05826,-0.0925 -0.05826,-0.218334 0,-0.131667 0.05641,-0.225001 0.05641,-0.09333 0.15722,-0.146667 0.101735,-0.05417 0.234906,-0.05417 0.09896,0 0.172017,0.02833 0.07306,0.0275 0.123927,0.08417 0.05086,0.05583 0.07399,0.128334 0.01295,0.0425 0.01479,0.11 H 19.76232 q -0.0028,0.04083 -0.0028,0.06083 0,0.105 0.0407,0.187501 0.0407,0.08167 0.107284,0.120833 0.06751,0.03833 0.152596,0.03833 0.07214,0 0.139649,-0.03 0.06751,-0.03083 0.163694,-0.119166 z m -0.118378,-0.336668 q -0.01387,-0.07667 -0.03976,-0.113333 -0.02497,-0.03667 -0.07214,-0.05833 -0.04624,-0.02167 -0.104509,-0.02167 -0.05826,0 -0.109125,0.02167 -0.05086,0.02167 -0.08509,0.06 -0.03329,0.03833 -0.05826,0.111667 z m 1.154183,-0.530001 v -0.07083 q 0.06289,-0.005 0.114678,-0.01917 0.05271,-0.015 0.131326,-0.05083 h 0.06936 v 1.010835 q 0,0.07 0.0037,0.085 0.0092,0.03167 0.03144,0.04417 0.02219,0.0125 0.08601,0.0125 h 0.03976 v 0.07 l -0.320915,0.01333 v -0.1325 q -0.09248,0.07583 -0.173867,0.1075 -0.08046,0.03167 -0.161845,0.03167 -0.167393,0 -0.278373,-0.120834 -0.110058,-0.121666 -0.110058,-0.2925 0,-0.121667 0.05826,-0.222501 0.05919,-0.101666 0.155371,-0.155 0.09618,-0.05333 0.21086,-0.05333 0.08786,0 0.162769,0.0275 0.07491,0.0275 0.136875,0.0825 v -0.367501 z m 0.155371,0.880002 v -0.315001 q 0,-0.0675 -0.02867,-0.11 -0.02775,-0.04333 -0.09248,-0.075 -0.06381,-0.03167 -0.131326,-0.03167 -0.08046,0 -0.148897,0.04 -0.06751,0.03917 -0.106351,0.114167 -0.03792,0.07417 -0.03792,0.180001 0,0.1 0.03515,0.173333 0.03607,0.0725 0.09619,0.110834 0.06012,0.0375 0.123001,0.0375 0.06196,0 0.140574,-0.03167 0.07861,-0.0325 0.150747,-0.0925 z"
     id="text2"
     style="font-weight:300;font-size:1.70667px;line-height:0;font-family:'Bookman Old Style';-inkscape-font-specification:'Bookman Old Style Light';text-align:center;letter-spacing:0.24px;text-anchor:middle;fill-opacity:0.991952;stroke:#000700;stroke-width:0.08;stroke-linecap:round"
     aria-label="DisOpinionated" />
  <path
     id="path43"
     style="opacity:1;fill:none;fill-opacity:0.0242792;stroke:#000700;stroke-width:0.8;stroke-linecap:round;stroke-opacity:0.983903"
     d="M 2.259985,12.796527 C 1.7714795,9.8507134 2.5108278,6.9279585 4.310052,4.6923037 6.1092806,2.4566441 8.2301751,0.80519339 11.228749,0.63209613"
     sodipodi:nodetypes="csc" />
  <path
     id="use43"
     style="opacity:0.99999999;fill:none;fill-opacity:0.0242792;stroke:#000700;stroke-width:0.611879;stroke-linecap:round;stroke-opacity:0.983903"
     d="M 5.8475437,8.6606242 C 6.1940293,6.4145154 7.4365192,4.4478558 9.292723,3.2074648 11.148931,1.9670712 13.101469,1.2202128 15.34454,1.7358831"
     sodipodi:nodetypes="csc" />
  <path
     id="use44"
     style="opacity:0.98422091;fill:#000000;fill-opacity:0.0242792;stroke:#000700;stroke-width:0.606971;stroke-linecap:round;stroke-opacity:0.983903"
     d="M 12.468386,6.3361733 C 12.888458,4.5131312 14.394828,2.9169027 16.645253,1.910146 18.895684,0.9033873 21.262903,0.2972037 23.982358,0.71574468"
     sodipodi:nodetypes="csc" />
</svg>
